<svg width="1000" height="1000" viewBox="0 0 1000 1000" fill="none" xmlns="http://www.w3.org/2000/svg">
<g clip-path="url(#clip0_618_93)">
<path fill-rule="evenodd" clip-rule="evenodd" d="M999.689 5.43016e-05C999.689 276.057 775.898 499.844 499.844 499.844C223.79 499.844 -2.41336e-05 276.056 0 0C276.054 0 499.844 223.787 499.844 499.844C499.844 223.787 723.634 5.43016e-05 999.689 5.43016e-05Z" fill="#BBF288"/>
<path fill-rule="evenodd" clip-rule="evenodd" d="M999.689 499.844C999.689 775.822 776.025 999.564 500.079 999.689H499.844H499.609C223.663 999.564 -2.41268e-05 775.822 0 499.844C276.054 499.844 499.844 723.631 499.844 999.689C499.844 723.631 723.634 499.844 999.689 499.844Z" fill="#BBF288"/>
</g>
<defs>
<clipPath id="clip0_618_93">
<rect width="1000" height="1000" fill="white"/>
</clipPath>
</defs>
</svg>
