<svg width="1124" height="1124" viewBox="0 0 1124 1124" fill="none" xmlns="http://www.w3.org/2000/svg">
<path fill-rule="evenodd" clip-rule="evenodd" d="M1123.65 -0.000401968C1123.65 310.288 872.109 561.824 561.825 561.824C251.54 561.824 -2.71262e-05 310.287 0 -0.000463003C310.285 -0.000463003 561.825 251.536 561.825 561.824C561.825 251.536 813.365 -0.000401968 1123.65 -0.000401968Z" fill="#BEEF9E"/>
<path fill-rule="evenodd" clip-rule="evenodd" d="M1123.65 561.824C1123.65 872.023 872.252 1123.51 562.089 1123.65L561.825 1123.65L561.56 1123.65C251.397 1123.51 -2.71185e-05 872.023 0 561.824C310.285 561.824 561.825 813.361 561.825 1123.65C561.825 813.361 813.365 561.824 1123.65 561.824Z" fill="#BEEF9E"/>
</svg>
