<svg width="9622" height="2004" viewBox="0 0 9622 2004" fill="none" xmlns="http://www.w3.org/2000/svg">
<path d="M660 1994L140 770L0 696V664H572V696L404 774L770 1636H780L1144 770L978 696V664H1404V696L1290 758L758 1994H660Z" fill="#BEEF9E"/>
<path d="M1567.81 1984V1952L1733.81 1870V778L1567.81 696V664H2151.81V696L1985.81 778V1870L2151.81 1952V1984H1567.81Z" fill="#BEEF9E"/>
<path d="M2368.41 1984V1952L2536.41 1870V778L2368.41 696V664H2984.41C3124.41 664 3234.41 693.333 3314.41 752C3395.74 809.333 3436.41 888.667 3436.41 990C3436.41 1064.67 3411.07 1130 3360.41 1186C3311.07 1240.67 3245.74 1283.33 3164.41 1314L3538.41 1876L3678.41 1952V1984H3304.41L2926.41 1374H2786.41V1868L2936.41 1952V1984H2368.41ZM2888.41 774H2786.41V1272H2900.41C2983.07 1272 3049.74 1248.67 3100.41 1202C3152.41 1155.33 3178.41 1094.67 3178.41 1020C3178.41 942.667 3153.07 882.667 3102.41 840C3051.74 796 2980.41 774 2888.41 774Z" fill="#BEEF9E"/>
<path d="M3776.8 1984V1952L3942.8 1870V778L3776.8 696V664H4360.8V696L4194.8 778V1870L4360.8 1952V1984H3776.8Z" fill="#BEEF9E"/>
<path d="M4577.39 1984V1952L4745.39 1870V778L4577.39 696V664H5221.39C5374.72 664 5504.72 690 5611.39 742C5719.39 794 5801.39 865.333 5857.39 956C5914.72 1046.67 5943.39 1149.33 5943.39 1264C5943.39 1368 5924.72 1464 5887.39 1552C5851.39 1640 5800.06 1716 5733.39 1780C5668.06 1844 5590.06 1894 5499.39 1930C5410.06 1966 5312.72 1984 5207.39 1984H4577.39ZM5153.39 774H4995.39V1874H5183.39C5288.72 1874 5378.06 1852 5451.39 1808C5526.06 1762.67 5582.72 1699.33 5621.39 1618C5661.39 1535.33 5681.39 1438 5681.39 1326C5681.39 1158 5636.06 1024 5545.39 924C5456.06 824 5325.39 774 5153.39 774Z" fill="#BEEF9E"/>
<path d="M6167.42 1984V1952L6333.42 1870V778L6167.42 696V664H6751.42V696L6585.42 778V1870L6751.42 1952V1984H6167.42Z" fill="#BEEF9E"/>
<path d="M7400.02 2004C7314.68 2004 7240.02 1996 7176.02 1980C7113.35 1962.67 7050.68 1938 6988.02 1906L6968.02 1572H7004.02L7126.02 1802C7208.68 1870 7295.35 1904 7386.02 1904C7460.68 1904 7520.68 1886 7566.02 1850C7611.35 1812.67 7634.02 1760 7634.02 1692C7634.02 1641.33 7622.02 1600.67 7598.02 1570C7575.35 1538 7540.02 1509.33 7492.02 1484C7444.02 1457.33 7381.35 1426.67 7304.02 1392C7210.68 1346.67 7138.68 1298 7088.02 1246C7037.35 1192.67 7012.02 1121.33 7012.02 1032C7012.02 981.333 7024.68 932.667 7050.02 886C7075.35 839.333 7108.68 798 7150.02 762C7192.68 726 7240.02 697.333 7292.02 676C7345.35 654.667 7400.02 644 7456.02 644C7522.68 644 7584.68 652 7642.02 668C7700.68 682.667 7756.68 704 7810.02 732L7830.02 1052H7796.02L7674.02 832C7635.35 802.667 7599.35 780.667 7566.02 766C7532.68 751.333 7494.68 744 7452.02 744C7396.02 744 7349.35 762.667 7312.02 800C7276.02 837.333 7258.02 884.667 7258.02 942C7258.02 1002 7278.02 1050.67 7318.02 1088C7358.02 1124 7424.68 1164 7518.02 1208C7599.35 1245.33 7666.02 1282 7718.02 1318C7770.02 1354 7808.68 1394.67 7834.02 1440C7859.35 1485.33 7872.02 1541.33 7872.02 1608C7872.02 1672 7858.02 1728.67 7830.02 1778C7803.35 1826 7766.68 1867.33 7720.02 1902C7674.68 1935.33 7624.02 1960.67 7568.02 1978C7512.02 1995.33 7456.02 2004 7400.02 2004Z" fill="#BEEF9E"/>
<mask id="mask0_611_74" style="mask-type:alpha" maskUnits="userSpaceOnUse" x="8296" y="662" width="1326" height="1326">
<circle cx="8958.67" cy="1325.33" r="662.667" fill="#D9D9D9" fill-opacity="0.9"/>
</mask>
<g mask="url(#mask0_611_74)">
<circle cx="9621.33" cy="1988" r="662.667" fill="#BEEF9E"/>
<circle cx="8296" cy="1988" r="662.667" fill="#BEEF9E"/>
</g>
<mask id="mask1_611_74" style="mask-type:alpha" maskUnits="userSpaceOnUse" x="8296" y="0" width="1326" height="1326">
<circle cx="8958.67" cy="662.667" r="662.667" fill="#D9D9D9" fill-opacity="0.9"/>
</mask>
<g mask="url(#mask1_611_74)">
<circle cx="9621.33" cy="1325.33" r="662.667" fill="#BEEF9E"/>
<circle cx="8296" cy="1325.33" r="662.667" fill="#BEEF9E"/>
</g>
</svg>
