<svg width="9805" height="1552" viewBox="0 0 9805 1552" fill="none" xmlns="http://www.w3.org/2000/svg">
<path d="M752 1446L232 222L92 148V116H664V148L496 226L862 1088H872L1236 222L1070 148V116H1496V148L1382 210L850 1446H752Z" fill="#BEEF9E"/>
<path d="M1659.81 1436V1404L1825.81 1322V230L1659.81 148V116H2243.81V148L2077.81 230V1322L2243.81 1404V1436H1659.81Z" fill="#BEEF9E"/>
<path d="M2460.41 1436V1404L2628.41 1322V230L2460.41 148V116H3076.41C3216.41 116 3326.41 145.333 3406.41 204C3487.74 261.333 3528.41 340.667 3528.41 442C3528.41 516.667 3503.07 582 3452.41 638C3403.07 692.667 3337.74 735.333 3256.41 766L3630.41 1328L3770.41 1404V1436H3396.41L3018.41 826H2878.41V1320L3028.41 1404V1436H2460.41ZM2980.41 226H2878.41V724H2992.41C3075.07 724 3141.74 700.667 3192.41 654C3244.41 607.333 3270.41 546.667 3270.41 472C3270.41 394.667 3245.07 334.667 3194.41 292C3143.74 248 3072.41 226 2980.41 226Z" fill="#BEEF9E"/>
<path d="M3868.8 1436V1404L4034.8 1322V230L3868.8 148V116H4452.8V148L4286.8 230V1322L4452.8 1404V1436H3868.8Z" fill="#BEEF9E"/>
<path d="M4669.39 1436V1404L4837.39 1322V230L4669.39 148V116H5313.39C5466.72 116 5596.72 142 5703.39 194C5811.39 246 5893.39 317.333 5949.39 408C6006.72 498.667 6035.39 601.333 6035.39 716C6035.39 820 6016.72 916 5979.39 1004C5943.39 1092 5892.06 1168 5825.39 1232C5760.06 1296 5682.06 1346 5591.39 1382C5502.06 1418 5404.72 1436 5299.39 1436H4669.39ZM5245.39 226H5087.39V1326H5275.39C5380.72 1326 5470.06 1304 5543.39 1260C5618.06 1214.67 5674.72 1151.33 5713.39 1070C5753.39 987.333 5773.39 890 5773.39 778C5773.39 610 5728.06 476 5637.39 376C5548.06 276 5417.39 226 5245.39 226Z" fill="#BEEF9E"/>
<path d="M6259.42 1436V1404L6425.42 1322V230L6259.42 148V116H6843.42V148L6677.42 230V1322L6843.42 1404V1436H6259.42Z" fill="#BEEF9E"/>
<path d="M7492.02 1456C7406.68 1456 7332.02 1448 7268.02 1432C7205.35 1414.67 7142.68 1390 7080.02 1358L7060.02 1024H7096.02L7218.02 1254C7300.68 1322 7387.35 1356 7478.02 1356C7552.68 1356 7612.68 1338 7658.02 1302C7703.35 1264.67 7726.02 1212 7726.02 1144C7726.02 1093.33 7714.02 1052.67 7690.02 1022C7667.35 990 7632.02 961.333 7584.02 936C7536.02 909.333 7473.35 878.667 7396.02 844C7302.68 798.667 7230.68 750 7180.02 698C7129.35 644.667 7104.02 573.333 7104.02 484C7104.02 433.333 7116.68 384.667 7142.02 338C7167.35 291.333 7200.68 250 7242.02 214C7284.68 178 7332.02 149.333 7384.02 128C7437.35 106.667 7492.02 96 7548.02 96C7614.68 96 7676.68 104 7734.02 120C7792.68 134.667 7848.68 156 7902.02 184L7922.02 504H7888.02L7766.02 284C7727.35 254.667 7691.35 232.667 7658.02 218C7624.68 203.333 7586.68 196 7544.02 196C7488.02 196 7441.35 214.667 7404.02 252C7368.02 289.333 7350.02 336.667 7350.02 394C7350.02 454 7370.02 502.667 7410.02 540C7450.02 576 7516.68 616 7610.02 660C7691.35 697.333 7758.02 734 7810.02 770C7862.02 806 7900.68 846.667 7926.02 892C7951.35 937.333 7964.02 993.333 7964.02 1060C7964.02 1124 7950.02 1180.67 7922.02 1230C7895.35 1278 7858.68 1319.33 7812.02 1354C7766.68 1387.33 7716.02 1412.67 7660.02 1430C7604.02 1447.33 7548.02 1456 7492.02 1456Z" fill="#BEEF9E"/>
<mask id="mask0_0_1" style="mask-type:alpha" maskUnits="userSpaceOnUse" x="8388" y="114" width="1326" height="1326">
<circle cx="9050.67" cy="777.335" r="662.667" fill="#D9D9D9" fill-opacity="0.9"/>
</mask>
<g mask="url(#mask0_0_1)">
<circle cx="9713.33" cy="1440" r="662.667" fill="#BEEF9E"/>
<circle cx="8388" cy="1440" r="662.667" fill="#BEEF9E"/>
</g>
<mask id="mask1_0_1" style="mask-type:alpha" maskUnits="userSpaceOnUse" x="8388" y="-548" width="1326" height="1326">
<circle cx="9050.67" cy="114.667" r="662.667" fill="#D9D9D9" fill-opacity="0.9"/>
</mask>
<g mask="url(#mask1_0_1)">
<circle cx="9713.33" cy="777.335" r="662.667" fill="#BEEF9E"/>
<circle cx="8388" cy="777.335" r="662.667" fill="#BEEF9E"/>
</g>
<rect x="40" y="4" width="68" height="30" rx="3" fill="white"/>
<rect x="40.5" y="4.5" width="67" height="29" rx="2.5" stroke="black" stroke-opacity="0.14902"/>
<path d="M51.3438 16C51.2969 15.6042 51.1068 15.2969 50.7734 15.0781C50.4401 14.8594 50.0313 14.75 49.5469 14.75C49.1927 14.75 48.8828 14.8073 48.6172 14.9219C48.3542 15.0365 48.1484 15.194 48 15.3945C47.8542 15.5951 47.7813 15.8229 47.7813 16.0781C47.7813 16.2917 47.832 16.4753 47.9336 16.6289C48.0378 16.7799 48.1706 16.9062 48.332 17.0078C48.4935 17.1068 48.6628 17.1888 48.8398 17.2539C49.0169 17.3164 49.1797 17.3672 49.3281 17.4062L50.1406 17.625C50.349 17.6797 50.5807 17.7552 50.8359 17.8516C51.0938 17.9479 51.3398 18.0794 51.5742 18.2461C51.8112 18.4102 52.0065 18.6211 52.1602 18.8789C52.3138 19.1367 52.3906 19.4531 52.3906 19.8281C52.3906 20.2604 52.2773 20.651 52.0508 21C51.8268 21.349 51.4987 21.6263 51.0664 21.832C50.6367 22.0378 50.1146 22.1406 49.5 22.1406C48.9271 22.1406 48.431 22.0482 48.0117 21.8633C47.5951 21.6784 47.2669 21.4206 47.0273 21.0898C46.7904 20.7591 46.6563 20.375 46.625 19.9375H47.625C47.651 20.2396 47.7526 20.4896 47.9297 20.6875C48.1094 20.8828 48.3359 21.0286 48.6094 21.125C48.8854 21.2187 49.1823 21.2656 49.5 21.2656C49.8698 21.2656 50.2018 21.2057 50.4961 21.0859C50.7904 20.9635 51.0234 20.7943 51.1953 20.5781C51.3672 20.3594 51.4531 20.1042 51.4531 19.8125C51.4531 19.5469 51.3789 19.3307 51.2305 19.1641C51.082 18.9974 50.8867 18.862 50.6445 18.7578C50.4023 18.6536 50.1406 18.5625 49.8594 18.4844L48.875 18.2031C48.25 18.0234 47.7552 17.7669 47.3906 17.4336C47.026 17.1003 46.8438 16.6641 46.8438 16.125C46.8438 15.6771 46.9648 15.2865 47.207 14.9531C47.4518 14.6172 47.7799 14.3568 48.1914 14.1719C48.6055 13.9844 49.0677 13.8906 49.5781 13.8906C50.0938 13.8906 50.5521 13.9831 50.9531 14.168C51.3542 14.3503 51.6719 14.6003 51.9062 14.918C52.1432 15.2357 52.2682 15.5964 52.2813 16H51.3438ZM56.374 22.125C55.7959 22.125 55.2972 21.9974 54.8779 21.7422C54.4613 21.4844 54.1396 21.125 53.9131 20.6641C53.6891 20.2005 53.5771 19.6615 53.5771 19.0469C53.5771 18.4323 53.6891 17.8906 53.9131 17.4219C54.1396 16.9505 54.4548 16.5833 54.8584 16.3203C55.2646 16.0547 55.7386 15.9219 56.2803 15.9219C56.5928 15.9219 56.9014 15.974 57.2061 16.0781C57.5107 16.1823 57.7881 16.3516 58.0381 16.5859C58.2881 16.8177 58.4873 17.125 58.6357 17.5078C58.7842 17.8906 58.8584 18.362 58.8584 18.9219V19.3125H54.2334V18.5156H57.9209C57.9209 18.1771 57.8532 17.875 57.7178 17.6094C57.585 17.3437 57.3949 17.1341 57.1475 16.9805C56.9027 16.8268 56.6136 16.75 56.2803 16.75C55.9131 16.75 55.5954 16.8411 55.3271 17.0234C55.0615 17.2031 54.8571 17.4375 54.7139 17.7266C54.5706 18.0156 54.499 18.3255 54.499 18.6562V19.1875C54.499 19.6406 54.5771 20.0247 54.7334 20.3398C54.8923 20.6523 55.1123 20.8906 55.3936 21.0547C55.6748 21.2161 56.0016 21.2969 56.374 21.2969C56.6162 21.2969 56.835 21.263 57.0303 21.1953C57.2282 21.125 57.3988 21.0208 57.542 20.8828C57.6852 20.7422 57.7959 20.5677 57.874 20.3594L58.7646 20.6094C58.6709 20.9115 58.5133 21.1771 58.292 21.4062C58.0706 21.6328 57.7972 21.8099 57.4717 21.9375C57.1462 22.0625 56.7803 22.125 56.374 22.125ZM62.6982 22.125C62.1357 22.125 61.6514 21.9922 61.2451 21.7266C60.8389 21.4609 60.5264 21.0951 60.3076 20.6289C60.0889 20.1628 59.9795 19.6302 59.9795 19.0312C59.9795 18.4219 60.0915 17.8841 60.3154 17.418C60.542 16.9492 60.8571 16.5833 61.2607 16.3203C61.667 16.0547 62.141 15.9219 62.6826 15.9219C63.1045 15.9219 63.4847 16 63.8232 16.1562C64.1618 16.3125 64.4391 16.5312 64.6553 16.8125C64.8714 17.0937 65.0055 17.4219 65.0576 17.7969H64.1357C64.0654 17.5234 63.9092 17.2812 63.667 17.0703C63.4274 16.8568 63.1045 16.75 62.6982 16.75C62.3389 16.75 62.0238 16.8437 61.7529 17.0312C61.4847 17.2161 61.2751 17.4779 61.124 17.8164C60.9756 18.1523 60.9014 18.5469 60.9014 19C60.9014 19.4635 60.9743 19.8672 61.1201 20.2109C61.2686 20.5547 61.4769 20.8216 61.7451 21.0117C62.016 21.2018 62.3337 21.2969 62.6982 21.2969C62.9378 21.2969 63.1553 21.2552 63.3506 21.1719C63.5459 21.0885 63.7113 20.9688 63.8467 20.8125C63.9821 20.6562 64.0785 20.4687 64.1357 20.25H65.0576C65.0055 20.6042 64.8766 20.9232 64.6709 21.207C64.4678 21.4883 64.1982 21.7122 63.8623 21.8789C63.529 22.043 63.141 22.125 62.6982 22.125ZM69.0146 16V16.7812H65.9053V16H69.0146ZM66.8115 14.5625H67.7334V20.2812C67.7334 20.5417 67.7712 20.737 67.8467 20.8672C67.9248 20.9948 68.0238 21.0807 68.1436 21.125C68.266 21.1667 68.3949 21.1875 68.5303 21.1875C68.6318 21.1875 68.7152 21.1823 68.7803 21.1719C68.8454 21.1589 68.8975 21.1484 68.9365 21.1406L69.124 21.9687C69.0615 21.9922 68.9743 22.0156 68.8623 22.0391C68.7503 22.0651 68.6084 22.0781 68.4365 22.0781C68.1761 22.0781 67.9209 22.0221 67.6709 21.9102C67.4235 21.7982 67.2178 21.6276 67.0537 21.3984C66.8923 21.1693 66.8115 20.8802 66.8115 20.5312V14.5625ZM70.4014 22V16H71.3232V22H70.4014ZM70.8701 15C70.6904 15 70.5355 14.9388 70.4053 14.8164C70.2777 14.694 70.2139 14.5469 70.2139 14.375C70.2139 14.2031 70.2777 14.056 70.4053 13.9336C70.5355 13.8112 70.6904 13.75 70.8701 13.75C71.0498 13.75 71.2035 13.8112 71.3311 13.9336C71.4613 14.056 71.5264 14.2031 71.5264 14.375C71.5264 14.5469 71.4613 14.694 71.3311 14.8164C71.2035 14.9388 71.0498 15 70.8701 15ZM75.4492 22.125C74.9076 22.125 74.4323 21.9961 74.0234 21.7383C73.6172 21.4805 73.2995 21.1198 73.0703 20.6562C72.8438 20.1927 72.7305 19.651 72.7305 19.0312C72.7305 18.4062 72.8438 17.8607 73.0703 17.3945C73.2995 16.9284 73.6172 16.5664 74.0234 16.3086C74.4323 16.0508 74.9076 15.9219 75.4492 15.9219C75.9909 15.9219 76.4648 16.0508 76.8711 16.3086C77.2799 16.5664 77.5977 16.9284 77.8242 17.3945C78.0534 17.8607 78.168 18.4062 78.168 19.0312C78.168 19.651 78.0534 20.1927 77.8242 20.6562C77.5977 21.1198 77.2799 21.4805 76.8711 21.7383C76.4648 21.9961 75.9909 22.125 75.4492 22.125ZM75.4492 21.2969C75.8607 21.2969 76.1992 21.1914 76.4648 20.9805C76.7305 20.7695 76.9271 20.4922 77.0547 20.1484C77.1823 19.8047 77.2461 19.4323 77.2461 19.0312C77.2461 18.6302 77.1823 18.2565 77.0547 17.9102C76.9271 17.5638 76.7305 17.2839 76.4648 17.0703C76.1992 16.8568 75.8607 16.75 75.4492 16.75C75.0378 16.75 74.6992 16.8568 74.4336 17.0703C74.168 17.2839 73.9714 17.5638 73.8438 17.9102C73.7161 18.2565 73.6523 18.6302 73.6523 19.0312C73.6523 19.4323 73.7161 19.8047 73.8438 20.1484C73.9714 20.4922 74.168 20.7695 74.4336 20.9805C74.6992 21.1914 75.0378 21.2969 75.4492 21.2969ZM80.4971 18.3906V22H79.5752V16H80.4658V16.9375H80.5439C80.6846 16.6328 80.8981 16.388 81.1846 16.2031C81.471 16.0156 81.8408 15.9219 82.2939 15.9219C82.7002 15.9219 83.0557 16.0052 83.3604 16.1719C83.665 16.3359 83.902 16.5859 84.0713 16.9219C84.2406 17.2552 84.3252 17.6771 84.3252 18.1875V22H83.4033V18.25C83.4033 17.7786 83.2809 17.4115 83.0361 17.1484C82.7913 16.8828 82.4554 16.75 82.0283 16.75C81.734 16.75 81.471 16.8138 81.2393 16.9414C81.0101 17.069 80.8291 17.2552 80.6963 17.5C80.5635 17.7448 80.4971 18.0417 80.4971 18.3906ZM91.6348 13.8906C91.9629 13.8932 92.291 13.9557 92.6191 14.0781C92.9473 14.2005 93.2467 14.4036 93.5176 14.6875C93.7884 14.9687 94.0059 15.3529 94.1699 15.8398C94.334 16.3268 94.416 16.9375 94.416 17.6719C94.416 18.3828 94.3483 19.0143 94.2129 19.5664C94.0801 20.1159 93.8874 20.5794 93.6348 20.957C93.3848 21.3346 93.0801 21.6211 92.7207 21.8164C92.3639 22.0117 91.9603 22.1094 91.5098 22.1094C91.0618 22.1094 90.6621 22.0208 90.3105 21.8437C89.9616 21.6641 89.6751 21.4154 89.4512 21.0977C89.2298 20.7773 89.0879 20.4062 89.0254 19.9844H89.9785C90.0645 20.3516 90.235 20.6549 90.4902 20.8945C90.748 21.1315 91.0879 21.25 91.5098 21.25C92.127 21.25 92.6139 20.9805 92.9707 20.4414C93.3301 19.9023 93.5098 19.1406 93.5098 18.1562H93.4473C93.3014 18.375 93.1283 18.5638 92.9277 18.7227C92.7272 18.8815 92.5046 19.0039 92.2598 19.0898C92.015 19.1758 91.7546 19.2188 91.4785 19.2188C91.0202 19.2188 90.5996 19.1055 90.2168 18.8789C89.8366 18.6497 89.5319 18.3359 89.3027 17.9375C89.0762 17.5365 88.9629 17.0781 88.9629 16.5625C88.9629 16.0729 89.0723 15.625 89.291 15.2187C89.5124 14.8099 89.8223 14.4844 90.2207 14.2422C90.6217 14 91.0931 13.8828 91.6348 13.8906ZM91.6348 14.75C91.3066 14.75 91.0111 14.832 90.748 14.9961C90.4876 15.1576 90.2806 15.3763 90.127 15.6523C89.9759 15.9258 89.9004 16.2292 89.9004 16.5625C89.9004 16.8958 89.9733 17.1992 90.1191 17.4727C90.2676 17.7435 90.4694 17.9596 90.7246 18.1211C90.9824 18.2799 91.2754 18.3594 91.6035 18.3594C91.8509 18.3594 92.0814 18.3112 92.2949 18.2148C92.5085 18.1159 92.6947 17.9818 92.8535 17.8125C93.015 17.6406 93.1413 17.4466 93.2324 17.2305C93.3236 17.0117 93.3691 16.7839 93.3691 16.5469C93.3691 16.2344 93.2936 15.9414 93.1426 15.668C92.9941 15.3945 92.7884 15.1732 92.5254 15.0039C92.265 14.8346 91.9681 14.75 91.6348 14.75ZM98.5615 22.1094C97.973 22.1094 97.4717 21.9492 97.0576 21.6289C96.6436 21.306 96.3271 20.8385 96.1084 20.2266C95.8896 19.612 95.7803 18.8698 95.7803 18C95.7803 17.1354 95.8896 16.3971 96.1084 15.7852C96.3298 15.1706 96.6475 14.7018 97.0615 14.3789C97.4782 14.0534 97.9782 13.8906 98.5615 13.8906C99.1449 13.8906 99.6436 14.0534 100.058 14.3789C100.474 14.7018 100.792 15.1706 101.011 15.7852C101.232 16.3971 101.343 17.1354 101.343 18C101.343 18.8698 101.233 19.612 101.015 20.2266C100.796 20.8385 100.479 21.306 100.065 21.6289C99.6514 21.9492 99.1501 22.1094 98.5615 22.1094ZM98.5615 21.25C99.1449 21.25 99.598 20.9687 99.9209 20.4062C100.244 19.8437 100.405 19.0417 100.405 18C100.405 17.3073 100.331 16.7174 100.183 16.2305C100.037 15.7435 99.8258 15.3724 99.5498 15.1172C99.2764 14.862 98.9469 14.7344 98.5615 14.7344C97.9834 14.7344 97.5316 15.0195 97.2061 15.5898C96.8805 16.1576 96.7178 16.9609 96.7178 18C96.7178 18.6927 96.7907 19.2812 96.9365 19.7656C97.0824 20.25 97.292 20.6185 97.5654 20.8711C97.8415 21.1237 98.1735 21.25 98.5615 21.25Z" fill="black"/>
</svg>
